<?xml version="1.0" encoding="utf-8"?>
<!-- Generator: Adobe Illustrator 17.1.0, SVG Export Plug-In . SVG Version: 6.00 Build 0)  -->
<!DOCTYPE svg PUBLIC "-//W3C//DTD SVG 1.1//EN" "http://www.w3.org/Graphics/SVG/1.1/DTD/svg11.dtd">
<svg version="1.1" id="Layer_1" xmlns="http://www.w3.org/2000/svg" xmlns:xlink="http://www.w3.org/1999/xlink" x="0px" y="0px"
	 viewBox="-229.9 494 28.6 28.6" enable-background="new -229.9 494 28.6 28.6" xml:space="preserve">
<g>
	
		<linearGradient id="SVGID_1_" gradientUnits="userSpaceOnUse" x1="-232.0165" y1="523.5065" x2="-201.6782" y2="494.1897" gradientTransform="matrix(1 0 0 -1 0 1016)">
		<stop  offset="0" style="stop-color:#DFF4FF"/>
		<stop  offset="9.840000e-002" style="stop-color:#D6EAF5"/>
		<stop  offset="0.2678" style="stop-color:#BFD0D9"/>
		<stop  offset="0.4879" style="stop-color:#98A5AC"/>
		<stop  offset="0.7469" style="stop-color:#646B6E"/>
		<stop  offset="1" style="stop-color:#2B2B2B"/>
	</linearGradient>
	<path fill="url(#SVGID_1_)" d="M-215.6,494c-7.9,0-14.3,6.4-14.3,14.3c0,7.9,6.4,14.3,14.3,14.3c7.9,0,14.3-6.4,14.3-14.3
		C-201.3,500.4-207.7,494-215.6,494z M-215.6,521.9c-7.5,0-13.6-6.1-13.6-13.6c0-7.5,6.1-13.6,13.6-13.6c7.5,0,13.6,6.1,13.6,13.6
		C-202,515.8-208.1,521.9-215.6,521.9z"/>
	<path fill="#333333" d="M-201.9,508.3c0,7.6-6.1,13.7-13.7,13.7c-7.6,0-13.7-6.1-13.7-13.7c0-7.6,6.1-13.7,13.7-13.7
		C-208.1,494.6-201.9,500.8-201.9,508.3L-201.9,508.3z"/>
	
		<radialGradient id="SVGID_2_" cx="-230.1016" cy="521.0193" r="20.3142" gradientTransform="matrix(1 0 0 -1 0 1016)" gradientUnits="userSpaceOnUse">
		<stop  offset="0" style="stop-color:#FFFFFF"/>
		<stop  offset="0.3064" style="stop-color:#A8A8A8"/>
		<stop  offset="0.6461" style="stop-color:#4F4F4F"/>
		<stop  offset="0.8853" style="stop-color:#161616"/>
		<stop  offset="1" style="stop-color:#000000"/>
	</radialGradient>
	<path opacity="0.58" fill="url(#SVGID_2_)" d="M-202,508.3c0,7.5-6.1,13.6-13.6,13.6c-7.5,0-13.6-6.1-13.6-13.6
		c0-7.5,6.1-13.6,13.6-13.6C-208.1,494.7-202,500.8-202,508.3z"/>
	
		<linearGradient id="SVGID_3_" gradientUnits="userSpaceOnUse" x1="1197.5862" y1="-97.9762" x2="1216.9084" y2="-116.648" gradientTransform="matrix(0 -1 -1 0 -323.6895 1716.359)">
		<stop  offset="0" style="stop-color:#DFF4FF"/>
		<stop  offset="8.550000e-002" style="stop-color:#D6EAF5"/>
		<stop  offset="0.2327" style="stop-color:#BED0D9"/>
		<stop  offset="0.4239" style="stop-color:#96A4AC"/>
		<stop  offset="0.6516" style="stop-color:#5F686D"/>
		<stop  offset="0.9075" style="stop-color:#1A1D1E"/>
		<stop  offset="1" style="stop-color:#000000"/>
	</linearGradient>
	<path fill="url(#SVGID_3_)" d="M-215.6,517.4c-5,0-9.1-4.1-9.1-9.1c0-5,4.1-9.1,9.1-9.1c5,0,9.1,4.1,9.1,9.1
		C-206.5,513.4-210.6,517.4-215.6,517.4z"/>
	<polygon points="-215.3,499 -214.3,496.5 -214.3,499 -213.6,499 -213.6,495.4 -214.7,495.4 -215.7,498 -215.6,498 -216.6,495.4 
		-217.7,495.4 -217.7,499 -217,499 -217,496.5 -216,499 	"/>
	<polygon points="-205.4,500.6 -206.6,502.4 -204.7,501.4 -204.2,502.1 -207.2,503.6 -207.8,502.8 -206.6,501.1 -206.7,501.1 
		-208.6,501.9 -209.2,501.2 -207.2,498.4 -206.7,499.1 -207.9,500.8 -206,499.9 	"/>
	<path fill="#333333" d="M-222,499.9c-0.3-0.3-0.7-0.4-1.2-0.1c0.1-0.2,0-0.4,0-0.5c-0.2-0.3-0.2-0.4-0.4-0.5
		c-0.5-0.4-1-0.1-1.4,0.4l-1.8,2.1l2.8,2.3l1.8-2.2C-221.6,500.8-221.5,500.3-222,499.9L-222,499.9z M-225.5,500.9l1.1-1.3
		c0.1-0.1,0.4-0.1,0.6,0c0.2,0.2,0.2,0.4,0.1,0.6l-1,1.2L-225.5,500.9z M-222.6,501.1l-1.1,1.3l-0.7-0.6l1.1-1.3
		c0.1-0.1,0.4-0.2,0.6,0C-222.5,500.7-222.5,500.9-222.6,501.1L-222.6,501.1z"/>
	
		<radialGradient id="SVGID_4_" cx="-233.75" cy="523.088" r="48.8121" gradientTransform="matrix(1 0 0 -1 0 1016)" gradientUnits="userSpaceOnUse">
		<stop  offset="0" style="stop-color:#FFFFFF"/>
		<stop  offset="0.3102" style="stop-color:#FDFDFD"/>
		<stop  offset="0.4505" style="stop-color:#F6F6F6"/>
		<stop  offset="0.5567" style="stop-color:#E9E9E9"/>
		<stop  offset="0.6456" style="stop-color:#D7D7D7"/>
		<stop  offset="0.7238" style="stop-color:#BFBFBF"/>
		<stop  offset="0.7944" style="stop-color:#A2A2A2"/>
		<stop  offset="0.8593" style="stop-color:#808080"/>
		<stop  offset="0.9199" style="stop-color:#575757"/>
		<stop  offset="0.9746" style="stop-color:#2B2B2B"/>
		<stop  offset="1" style="stop-color:#141414"/>
	</radialGradient>
	<polygon fill="url(#SVGID_4_)" points="-215.3,498.8 -214.3,496.3 -214.3,498.8 -213.6,498.8 -213.6,495.3 -214.7,495.3 
		-215.6,497.8 -215.6,497.8 -216.6,495.3 -217.7,495.3 -217.7,498.8 -217,498.8 -217,496.3 -216,498.8 	"/>
	
		<radialGradient id="SVGID_5_" cx="-233.7522" cy="523.088" r="48.8162" gradientTransform="matrix(1 0 0 -1 0 1016)" gradientUnits="userSpaceOnUse">
		<stop  offset="0" style="stop-color:#FFFFFF"/>
		<stop  offset="0.3102" style="stop-color:#FDFDFD"/>
		<stop  offset="0.4505" style="stop-color:#F6F6F6"/>
		<stop  offset="0.5567" style="stop-color:#E9E9E9"/>
		<stop  offset="0.6456" style="stop-color:#D7D7D7"/>
		<stop  offset="0.7238" style="stop-color:#BFBFBF"/>
		<stop  offset="0.7944" style="stop-color:#A2A2A2"/>
		<stop  offset="0.8593" style="stop-color:#808080"/>
		<stop  offset="0.9199" style="stop-color:#575757"/>
		<stop  offset="0.9746" style="stop-color:#2B2B2B"/>
		<stop  offset="1" style="stop-color:#141414"/>
	</radialGradient>
	<polygon fill="url(#SVGID_5_)" points="-205.4,500.3 -206.6,502.1 -204.7,501.2 -204.2,501.8 -207.2,503.3 -207.8,502.6 
		-206.6,500.8 -206.6,500.8 -208.6,501.7 -209.2,500.9 -207.2,498.2 -206.7,498.8 -207.9,500.6 -206,499.7 	"/>
	
		<radialGradient id="SVGID_6_" cx="-233.7548" cy="523.1024" r="48.8536" gradientTransform="matrix(1 0 0 -1 0 1016)" gradientUnits="userSpaceOnUse">
		<stop  offset="0" style="stop-color:#FFFFFF"/>
		<stop  offset="0.3102" style="stop-color:#FDFDFD"/>
		<stop  offset="0.4505" style="stop-color:#F6F6F6"/>
		<stop  offset="0.5567" style="stop-color:#E9E9E9"/>
		<stop  offset="0.6456" style="stop-color:#D7D7D7"/>
		<stop  offset="0.7238" style="stop-color:#BFBFBF"/>
		<stop  offset="0.7944" style="stop-color:#A2A2A2"/>
		<stop  offset="0.8593" style="stop-color:#808080"/>
		<stop  offset="0.9199" style="stop-color:#575757"/>
		<stop  offset="0.9746" style="stop-color:#2B2B2B"/>
		<stop  offset="1" style="stop-color:#141414"/>
	</radialGradient>
	<path fill="url(#SVGID_6_)" d="M-222.1,499.8c-0.3-0.3-0.7-0.4-1.2-0.1c0.1-0.2,0-0.4,0-0.5c-0.2-0.3-0.2-0.4-0.4-0.5
		c-0.5-0.4-1-0.1-1.4,0.4l-1.8,2.1l2.8,2.3l1.8-2.2C-221.7,500.8-221.7,500.3-222.1,499.8L-222.1,499.8z M-225.7,500.8l1.1-1.3
		c0.1-0.1,0.4-0.1,0.6,0c0.2,0.2,0.2,0.4,0.1,0.6l-1,1.2L-225.7,500.8z M-222.8,501l-1.1,1.3l-0.7-0.6l1.1-1.3
		c0.1-0.1,0.4-0.2,0.6,0C-222.6,500.6-222.6,500.9-222.8,501L-222.8,501z"/>
	
		<radialGradient id="SVGID_7_" cx="-230.4331" cy="523.4128" r="13.1661" gradientTransform="matrix(0 1 1 0 -730.3839 729.3834)" gradientUnits="userSpaceOnUse">
		<stop  offset="0" style="stop-color:#E6E6E6"/>
		<stop  offset="0.1045" style="stop-color:#D6D6D6"/>
		<stop  offset="0.3074" style="stop-color:#ADADAD"/>
		<stop  offset="0.5884" style="stop-color:#6C6C6C"/>
		<stop  offset="0.9335" style="stop-color:#121212"/>
		<stop  offset="1" style="stop-color:#000000"/>
	</radialGradient>
	<path fill="url(#SVGID_7_)" d="M-215.6,499.5c4.9,0,8.8,3.9,8.8,8.8c0,4.9-3.9,8.8-8.8,8.8c-4.9,0-8.8-3.9-8.8-8.8
		C-224.4,503.5-220.5,499.5-215.6,499.5L-215.6,499.5z"/>
	
		<radialGradient id="SVGID_8_" cx="-226.8321" cy="521.642" r="19.1473" gradientTransform="matrix(0 1 1 0 -730.3839 729.3834)" gradientUnits="userSpaceOnUse">
		<stop  offset="0" style="stop-color:#FFFFFF"/>
		<stop  offset="0.3435" style="stop-color:#FDFDFD"/>
		<stop  offset="0.4814" style="stop-color:#F6F6F6"/>
		<stop  offset="0.5824" style="stop-color:#EAEAEA"/>
		<stop  offset="0.6654" style="stop-color:#D8D8D8"/>
		<stop  offset="0.7373" style="stop-color:#C2C2C2"/>
		<stop  offset="0.8016" style="stop-color:#A6A6A6"/>
		<stop  offset="0.8602" style="stop-color:#848484"/>
		<stop  offset="0.9126" style="stop-color:#5F5F5F"/>
		<stop  offset="0.9494" style="stop-color:#404040"/>
		<stop  offset="0.9566" style="stop-color:#404040"/>
		<stop  offset="1" style="stop-color:#404040"/>
		<stop  offset="1" style="stop-color:#000000"/>
	</radialGradient>
	<path fill="url(#SVGID_8_)" d="M-215.6,499.8c4.7,0,8.6,3.8,8.6,8.6s-3.8,8.6-8.6,8.6c-4.7,0-8.6-3.8-8.6-8.6
		C-224.2,503.6-220.3,499.8-215.6,499.8L-215.6,499.8z"/>
	
		<radialGradient id="SVGID_9_" cx="-232.4539" cy="528.9" r="33.91" gradientTransform="matrix(0 1 1 0 -730.3839 729.3834)" gradientUnits="userSpaceOnUse">
		<stop  offset="0.1685" style="stop-color:#FFFFFF"/>
		<stop  offset="0.1957" style="stop-color:#E0EFF7"/>
		<stop  offset="0.2406" style="stop-color:#B2D9EC"/>
		<stop  offset="0.2872" style="stop-color:#8BC5E2"/>
		<stop  offset="0.335" style="stop-color:#6BB5DA"/>
		<stop  offset="0.3844" style="stop-color:#52A9D4"/>
		<stop  offset="0.4359" style="stop-color:#41A0CF"/>
		<stop  offset="0.4911" style="stop-color:#369BCD"/>
		<stop  offset="0.5562" style="stop-color:#3399CC"/>
		<stop  offset="0.606" style="stop-color:#3396C8"/>
		<stop  offset="0.6553" style="stop-color:#328EBC"/>
		<stop  offset="0.7045" style="stop-color:#3180A8"/>
		<stop  offset="0.7536" style="stop-color:#2F6D8C"/>
	</radialGradient>
	<path fill="url(#SVGID_9_)" d="M-215.6,499.8v8.6h8.6C-207.1,503.6-210.9,499.8-215.6,499.8z"/>
	
		<radialGradient id="SVGID_10_" cx="-232.4539" cy="528.9003" r="33.9094" gradientTransform="matrix(0 1 1 0 -730.3839 729.3834)" gradientUnits="userSpaceOnUse">
		<stop  offset="0.1685" style="stop-color:#FFFFFF"/>
		<stop  offset="0.1957" style="stop-color:#E0EFF7"/>
		<stop  offset="0.2406" style="stop-color:#B2D9EC"/>
		<stop  offset="0.2872" style="stop-color:#8BC5E2"/>
		<stop  offset="0.335" style="stop-color:#6BB5DA"/>
		<stop  offset="0.3844" style="stop-color:#52A9D4"/>
		<stop  offset="0.4359" style="stop-color:#41A0CF"/>
		<stop  offset="0.4911" style="stop-color:#369BCD"/>
		<stop  offset="0.5562" style="stop-color:#3399CC"/>
		<stop  offset="0.606" style="stop-color:#3396C8"/>
		<stop  offset="0.6553" style="stop-color:#328EBC"/>
		<stop  offset="0.7045" style="stop-color:#3180A8"/>
		<stop  offset="0.7536" style="stop-color:#2F6D8C"/>
	</radialGradient>
	<path fill="url(#SVGID_10_)" d="M-215.6,508.3h-8.6c0,4.7,3.8,8.6,8.6,8.6V508.3z"/>
	
		<radialGradient id="SVGID_11_" cx="-230.2533" cy="523.2469" r="12.9138" gradientTransform="matrix(0 1 1 0 -730.3839 729.3834)" gradientUnits="userSpaceOnUse">
		<stop  offset="0" style="stop-color:#E6E6E6"/>
		<stop  offset="0.1045" style="stop-color:#D6D6D6"/>
		<stop  offset="0.3074" style="stop-color:#ADADAD"/>
		<stop  offset="0.5884" style="stop-color:#6C6C6C"/>
		<stop  offset="0.9335" style="stop-color:#121212"/>
		<stop  offset="1" style="stop-color:#000000"/>
	</radialGradient>
	<polygon fill="url(#SVGID_11_)" points="-215.5,517 -215.5,508.5 -207,508.5 -207,508.2 -215.5,508.2 -215.5,499.7 -215.8,499.7 
		-215.8,508.2 -224.3,508.2 -224.3,508.5 -215.8,508.5 -215.8,517 	"/>
	
		<linearGradient id="SVGID_12_" gradientUnits="userSpaceOnUse" x1="-217.3182" y1="519.3793" x2="-204.7248" y2="507.2099" gradientTransform="matrix(1 0 0 -1 0 1016)">
		<stop  offset="0" style="stop-color:#F0F4FF"/>
		<stop  offset="0.1086" style="stop-color:#EBEFF9"/>
		<stop  offset="0.2475" style="stop-color:#DCE0EA"/>
		<stop  offset="0.4028" style="stop-color:#C4C7CF"/>
		<stop  offset="0.5701" style="stop-color:#A2A4AB"/>
		<stop  offset="0.7469" style="stop-color:#76777C"/>
		<stop  offset="0.9291" style="stop-color:#414243"/>
		<stop  offset="1" style="stop-color:#2B2B2B"/>
	</linearGradient>
	<path fill="url(#SVGID_12_)" d="M-215.5,499.9c4.5,0.1,8.2,3.7,8.2,8.2h0.2c-0.1-4.6-3.8-8.3-8.4-8.4L-215.5,499.9L-215.5,499.9z"
		/>
	<path fill="#C2D7E8" d="M-215.5,499.9c4.5,0.1,8.2,3.7,8.3,8.3h0.2c-0.1-4.6-3.8-8.3-8.4-8.4L-215.5,499.9L-215.5,499.9z"/>
	
		<linearGradient id="SVGID_13_" gradientUnits="userSpaceOnUse" x1="-232.9654" y1="516.1968" x2="-220.3717" y2="504.0272" gradientTransform="matrix(0 1 1 0 -730.3839 729.3834)">
		<stop  offset="0" style="stop-color:#F0F4FF"/>
		<stop  offset="0.1086" style="stop-color:#EBEFF9"/>
		<stop  offset="0.2475" style="stop-color:#DCE0EA"/>
		<stop  offset="0.4028" style="stop-color:#C4C7CF"/>
		<stop  offset="0.5701" style="stop-color:#A2A4AB"/>
		<stop  offset="0.7469" style="stop-color:#76777C"/>
		<stop  offset="0.9291" style="stop-color:#414243"/>
		<stop  offset="1" style="stop-color:#2B2B2B"/>
	</linearGradient>
	<path fill="url(#SVGID_13_)" d="M-224,508.2c0.1-4.5,3.7-8.2,8.2-8.2v-0.2c-4.6,0.1-8.3,3.8-8.4,8.4L-224,508.2L-224,508.2z"/>
	<path fill="#12404F" d="M-215.8,516.7c-4.5-0.1-8.2-3.7-8.2-8.2h-0.2c0.1,4.6,3.8,8.3,8.4,8.4V516.7z"/>
	
		<linearGradient id="SVGID_14_" gradientUnits="userSpaceOnUse" x1="-226.8729" y1="520.5363" x2="-220.3426" y2="514.2259" gradientTransform="matrix(0 1 1 0 -730.3839 729.3834)">
		<stop  offset="0" style="stop-color:#C2D7E8"/>
		<stop  offset="0.1337" style="stop-color:#BACFE1"/>
		<stop  offset="0.3425" style="stop-color:#A4BACD"/>
		<stop  offset="0.6001" style="stop-color:#8098AC"/>
		<stop  offset="0.894" style="stop-color:#4E697F"/>
		<stop  offset="1" style="stop-color:#3A566D"/>
	</linearGradient>
	<polygon fill="url(#SVGID_14_)" points="-207.1,508 -215.3,508 -215.3,499.8 -215.5,499.8 -215.5,508 -215.5,508.2 -215.3,508.2 
		-207.1,508.2 	"/>
	
		<linearGradient id="SVGID_15_" gradientUnits="userSpaceOnUse" x1="-230.1434" y1="518.9901" x2="-217.6765" y2="506.9429" gradientTransform="matrix(0 1 1 0 -730.3839 729.3834)">
		<stop  offset="0" style="stop-color:#F0F4FF"/>
		<stop  offset="9.730001e-002" style="stop-color:#E8EBF6"/>
		<stop  offset="0.2568" style="stop-color:#D1D4DD"/>
		<stop  offset="0.4587" style="stop-color:#ABAEB5"/>
		<stop  offset="0.6951" style="stop-color:#78797D"/>
		<stop  offset="0.9578" style="stop-color:#363637"/>
		<stop  offset="1" style="stop-color:#2B2B2B"/>
	</linearGradient>
	<polygon fill="url(#SVGID_15_)" points="-224.1,508 -216,508 -216,499.8 -215.8,499.8 -215.8,508 -215.8,508.2 -216,508.2 
		-224.1,508.2 	"/>
	
		<linearGradient id="SVGID_16_" gradientUnits="userSpaceOnUse" x1="-220.9545" y1="514.5212" x2="-216.5815" y2="510.2954" gradientTransform="matrix(0 1 1 0 -730.3839 729.3834)">
		<stop  offset="0" style="stop-color:#D9DEF0"/>
		<stop  offset="0.1229" style="stop-color:#D4DAEC"/>
		<stop  offset="0.2629" style="stop-color:#C7CFE2"/>
		<stop  offset="0.4114" style="stop-color:#B0BCD1"/>
		<stop  offset="0.5657" style="stop-color:#90A1B8"/>
		<stop  offset="0.7246" style="stop-color:#677F99"/>
		<stop  offset="0.8849" style="stop-color:#355674"/>
		<stop  offset="0.9719" style="stop-color:#173D5D"/>
	</linearGradient>
	<polygon fill="url(#SVGID_16_)" points="-224.1,508.7 -216,508.7 -216,516.8 -215.8,516.8 -215.8,508.7 -215.8,508.5 -216,508.5 
		-224.1,508.5 	"/>
	
		<linearGradient id="SVGID_17_" gradientUnits="userSpaceOnUse" x1="-225.428" y1="523.5623" x2="-212.9746" y2="511.5282" gradientTransform="matrix(0 1 1 0 -730.3839 729.3834)">
		<stop  offset="0" style="stop-color:#F0F4FF"/>
		<stop  offset="0.1086" style="stop-color:#EBEFF9"/>
		<stop  offset="0.2475" style="stop-color:#DCE0EA"/>
		<stop  offset="0.4028" style="stop-color:#C4C7CF"/>
		<stop  offset="0.5701" style="stop-color:#A2A4AB"/>
		<stop  offset="0.7469" style="stop-color:#76777C"/>
		<stop  offset="0.9291" style="stop-color:#414243"/>
		<stop  offset="1" style="stop-color:#2B2B2B"/>
	</linearGradient>
	<polygon fill="url(#SVGID_17_)" points="-207.1,508.7 -215.3,508.7 -215.3,516.8 -215.4,516.8 -215.4,508.7 -215.4,508.5 
		-215.3,508.5 -207.1,508.5 	"/>
</g>
</svg>
