<?xml version="1.0" encoding="utf-8"?>
<!-- Generator: Adobe Illustrator 23.1.0, SVG Export Plug-In . SVG Version: 6.00 Build 0)  -->
<svg version="1.1" id="Layer_1" xmlns="http://www.w3.org/2000/svg" xmlns:xlink="http://www.w3.org/1999/xlink" x="0px" y="0px"
	 viewBox="0 0 26 25" style="enable-background:new 0 0 26 25;" xml:space="preserve">
<g>
	<path d="M26,12.4c0,6.1-4.4,11.3-10.5,12.4c-3.1,0.6-6.1,0.1-8.9-1.4c-0.1-0.1-0.3-0.1-0.4,0c-1.5,0.5-3,1-4.4,1.6
		c-0.5,0.2-1,0.2-1.4-0.2c-0.4-0.4-0.4-0.8-0.3-1.3c0.6-1.4,1.1-2.9,1.6-4.3c0.1-0.2,0-0.3,0-0.4c-4.1-7-0.4-15.8,7.5-18.1
		c7.3-2.1,15,2.3,16.5,9.5C25.9,10.9,26,11.7,26,12.4z"/>
</g>
</svg>
